<svg version="1.1" id="Layer_1" xmlns="http://www.w3.org/2000/svg" xmlns:xlink="http://www.w3.org/1999/xlink" x="0px" y="0px"
	 width="100%" viewBox="0 0 1235 650" enable-background="new 0 0 1235 650" xml:space="preserve">
<path fill="#003D8F" opacity="1.000000" stroke="none" 
	d="
M565.000000,651.000000 
	C377.096863,651.000000 189.193726,651.000000 1.000000,651.000000 
	C1.000000,560.976868 1.000000,470.953461 1.440514,380.289673 
	C2.713606,379.625793 3.546185,379.581696 4.378765,379.581696 
	C189.689331,379.578522 374.999908,379.578033 560.310486,379.586700 
	C561.751038,379.586761 563.191589,379.713196 565.000000,379.797882 
	C565.000000,470.416595 565.000000,560.708313 565.000000,651.000000 
M496.609314,517.286682 
	C495.818604,516.804993 495.084747,516.069702 494.229065,515.877991 
	C448.158783,505.555664 402.068970,495.319763 356.022034,484.894623 
	C353.312927,484.281281 350.443024,482.672272 348.488220,480.695587 
	C327.755493,459.731293 307.175751,438.615417 286.626984,417.470215 
	C285.387817,416.195038 284.768951,414.317047 283.585571,412.233948 
	C281.020935,415.061127 279.945496,416.327545 278.786469,417.512207 
	C258.050507,438.708008 237.333725,459.922760 216.504349,481.026398 
	C214.855240,482.697205 212.555984,484.222321 210.312256,484.734222 
	C184.543121,490.613770 158.724396,496.275726 132.922607,502.012451 
	C111.418304,506.793671 89.918983,511.597290 67.048874,516.696106 
	C69.365372,517.434204 70.359406,517.836731 71.391846,518.067566 
	C117.467598,528.368530 163.555099,538.617554 209.603134,549.040894 
	C212.160004,549.619629 214.852478,551.171875 216.705856,553.040588 
	C233.832382,570.308533 250.766693,587.766968 267.806732,605.121033 
	C272.684296,610.088501 277.723999,614.896790 283.170654,620.251282 
	C284.333374,618.907715 285.455688,617.464539 286.725220,616.165344 
	C307.332397,595.076721 327.936432,573.984863 348.623840,552.975220 
	C350.183228,551.391479 352.211426,549.733459 354.282043,549.267761 
	C401.479858,538.652954 448.714020,528.199707 496.609314,517.286682 
z"/>
<path fill="#003D8F" opacity="1.000000" stroke="none" 
	d="
M1.000000,272.000000 
	C1.000000,181.713226 1.000000,91.426437 1.000000,1.000000 
	C188.689957,1.000000 376.379944,1.000000 564.532593,1.468652 
	C564.995239,92.030457 564.995239,182.123611 564.995239,272.421478 
	C562.692139,272.421478 561.030518,272.421478 559.368896,272.421478 
	C374.889404,272.421417 190.409927,272.422485 5.930433,272.403900 
	C4.286942,272.403717 2.643476,272.140442 1.000000,272.000000 
M264.116119,50.614967 
	C248.390564,66.692024 232.725021,82.828796 216.862839,98.769928 
	C214.899643,100.742897 212.048126,102.372810 209.342056,102.984947 
	C165.562225,112.888298 121.738152,122.596077 77.928436,132.367569 
	C74.698799,133.087921 71.502243,133.956573 68.290298,134.756287 
	C115.371880,146.063110 162.267776,156.477264 209.123642,167.068497 
	C211.839279,167.682343 214.742538,169.225708 216.693024,171.194107 
	C237.446686,192.138367 258.036469,213.245209 278.624084,234.353378 
	C279.878479,235.639481 280.733795,237.314880 282.536652,239.902740 
	C284.710327,237.066605 285.774323,235.344299 287.153412,233.929077 
	C307.498932,213.050308 327.832886,192.159393 348.346283,171.446365 
	C350.405884,169.366730 353.451355,167.707001 356.312286,167.060638 
	C401.554108,156.839081 446.841370,146.818619 492.113953,136.732864 
	C493.711853,136.376877 495.265564,135.822418 498.063324,135.001495 
	C495.944702,134.406326 495.191925,134.156052 494.421692,133.984055 
	C448.343597,123.694481 402.253815,113.456581 356.209381,103.018761 
	C353.353851,102.371452 350.331482,100.674583 348.268616,98.592392 
	C327.516846,77.646324 306.940399,56.526447 286.354858,35.416191 
	C285.204834,34.236843 284.408539,32.712559 283.781250,31.822363 
	C276.874573,38.411289 270.742981,44.260777 264.116119,50.614967 
z"/>
<path fill="#003D8F" opacity="1.000000" stroke="none" 
	d="
M1236.000000,380.000000 
	C1236.000000,470.286774 1236.000000,560.573547 1236.000000,651.000000 
	C1048.310059,651.000000 860.620056,651.000000 672.467285,650.531372 
	C672.004517,559.969360 672.004517,469.876068 672.004517,379.578369 
	C674.141235,379.578369 675.635864,379.578369 677.130493,379.578369 
	C861.776855,379.578339 1046.423218,379.577209 1231.069580,379.595734 
	C1232.713013,379.595917 1234.356567,379.859436 1236.000000,380.000000 
M1138.734985,524.131042 
	C1148.823486,521.890625 1158.912109,519.650146 1169.992188,517.189453 
	C1168.526733,516.422729 1168.269775,516.212097 1167.980225,516.147583 
	C1121.391357,505.765656 1074.789917,495.439301 1028.233765,484.912506 
	C1025.377075,484.266571 1022.357117,482.555145 1020.292603,480.469025 
	C999.661072,459.621460 979.200378,438.604584 958.749084,417.579468 
	C957.492371,416.287476 956.721619,414.522919 955.029968,411.901611 
	C952.906799,414.747955 952.047791,416.217102 950.894165,417.398651 
	C930.170471,438.624023 909.439636,459.842743 888.604675,480.958710 
	C886.951416,482.634216 884.672668,484.197296 882.432129,484.710724 
	C859.575378,489.948456 836.663025,494.943207 813.772644,500.034729 
	C789.324158,505.472870 764.882507,510.942047 739.162354,516.682373 
	C741.363770,517.409607 742.348572,517.830811 743.376160,518.060547 
	C789.471741,528.366028 835.579407,538.617737 881.647400,549.044861 
	C884.204712,549.623657 886.897156,551.183411 888.749451,553.055542 
	C908.675659,573.194885 928.455933,593.478760 948.242554,613.755798 
	C950.307251,615.871582 952.156433,618.197632 954.829590,621.253906 
	C956.436218,619.124329 957.307190,617.668274 958.459839,616.487000 
	C979.177551,595.255859 999.886475,574.015564 1020.747437,552.925720 
	C1022.590027,551.062866 1025.328857,549.596069 1027.894165,549.012390 
	C1064.543701,540.673401 1101.234985,532.518066 1138.734985,524.131042 
z"/>
<path fill="#003D8F" opacity="1.000000" stroke="none" 
	d="
M672.000000,1.000000 
	C859.903137,1.000000 1047.806274,1.000000 1236.000000,1.000000 
	C1236.000000,91.023117 1236.000000,181.046555 1235.559082,271.709137 
	C1234.118896,272.372375 1233.119751,272.417542 1232.120483,272.417542 
	C1046.976685,272.420929 861.832886,272.421539 676.689087,272.412994 
	C675.248596,272.412903 673.808105,272.286804 672.000000,272.202362 
	C672.000000,181.583313 672.000000,91.291656 672.000000,1.000000 
M971.628052,221.127838 
	C987.934692,204.454819 1004.199219,187.740112 1020.609192,171.169403 
	C1022.369934,169.391418 1024.822266,167.766739 1027.214844,167.225739 
	C1063.536255,159.012909 1099.903198,151.001862 1136.254883,142.922470 
	C1147.118652,140.507904 1157.967896,138.028305 1168.823853,135.578506 
	C1168.047852,134.458771 1167.321777,134.170898 1166.568970,134.002930 
	C1120.327148,123.685493 1074.075073,113.413559 1027.860840,102.973694 
	C1025.298828,102.394905 1022.571228,100.904770 1020.727661,99.040749 
	C999.876709,77.958511 979.164734,56.738525 958.495361,35.477829 
	C957.277344,34.224945 956.742798,32.307568 955.808533,30.545290 
	C932.419800,54.444618 910.666321,76.736443 888.789795,98.906876 
	C887.031555,100.688759 884.582886,102.326424 882.191895,102.866714 
	C842.950928,111.734200 803.665833,120.406693 764.395142,129.142975 
	C756.385132,130.924911 748.393188,132.788406 740.392944,134.614319 
	C741.167114,135.704193 741.877502,135.892487 742.594116,136.052505 
	C788.672058,146.341934 834.761780,156.579498 880.803223,167.029953 
	C883.810059,167.712448 886.998901,169.477264 889.169983,171.664764 
	C909.823181,192.473816 930.289673,213.468369 950.746277,234.471527 
	C951.984253,235.742523 952.681396,237.540207 953.361633,238.653320 
	C960.092957,232.206406 965.613037,226.919556 971.628052,221.127838 
z"/>
<path fill="#FCFDFD" opacity="1.000000" stroke="none" 
	d="
M671.531372,1.000000 
	C672.000000,91.291656 672.000000,181.583313 672.000000,272.202362 
	C673.808105,272.286804 675.248596,272.412903 676.689087,272.412994 
	C861.832886,272.421539 1046.976685,272.420929 1232.120483,272.417542 
	C1233.119751,272.417542 1234.118896,272.372375 1235.559082,272.174133 
	C1236.000000,281.687561 1236.000000,291.375122 1235.531372,301.533264 
	C1059.524780,302.003876 883.986755,302.003876 707.772156,302.003876 
	C712.860291,309.783356 716.755798,317.491760 715.740540,325.939972 
	C714.759155,334.105896 711.814697,342.035919 709.750549,350.000000 
	C884.402405,350.000000 1060.201172,350.000000 1236.000000,350.000000 
	C1236.000000,359.687561 1236.000000,369.375122 1236.000000,379.531342 
	C1234.356567,379.859436 1232.713013,379.595917 1231.069580,379.595734 
	C1046.423218,379.577209 861.776855,379.578339 677.130493,379.578369 
	C675.635864,379.578369 674.141235,379.578369 672.004517,379.578369 
	C672.004517,469.876068 672.004517,559.969360 672.002258,650.531372 
	C662.645752,651.000000 653.291565,651.000000 643.394592,650.536377 
	C642.851868,566.083862 642.851868,482.094971 642.851868,397.255890 
	C626.153442,407.771515 610.190247,407.369385 594.000000,397.306427 
	C594.000000,482.465973 594.000000,566.732971 594.000000,651.000000 
	C584.645752,651.000000 575.291565,651.000000 565.468628,651.000000 
	C565.000000,560.708313 565.000000,470.416595 565.000000,379.797882 
	C563.191589,379.713196 561.751038,379.586761 560.310486,379.586700 
	C374.999908,379.578033 189.689331,379.578522 4.378765,379.581696 
	C3.546185,379.581696 2.713606,379.625793 1.440514,379.824646 
	C1.000000,370.312439 1.000000,360.624878 1.468654,350.466797 
	C177.474792,349.996277 353.012299,349.996277 529.273804,349.996277 
	C518.302979,333.692413 518.485229,317.961700 529.236816,302.000000 
	C352.597260,302.000000 176.798630,302.000000 1.000000,302.000000 
	C1.000000,292.312439 1.000000,282.624878 1.000000,272.468658 
	C2.643476,272.140442 4.286942,272.403717 5.930433,272.403900 
	C190.409927,272.422485 374.889404,272.421417 559.368896,272.421478 
	C561.030518,272.421478 562.692139,272.421478 564.995239,272.421478 
	C564.995239,182.123611 564.995239,92.030457 564.997620,1.468652 
	C574.354248,1.000000 583.708435,1.000000 593.513550,1.264793 
	C594.016602,1.698651 594.068726,1.867717 594.067993,2.500471 
	C594.015198,86.924072 594.015198,170.883987 594.015198,255.589752 
	C609.904785,244.624252 625.304321,244.315353 641.023804,254.375854 
	C641.686951,254.416245 642.195435,254.165024 642.757690,253.453583 
	C642.817383,170.653290 642.822266,88.313232 642.836243,5.973175 
	C642.836548,4.315440 642.943054,2.657724 643.000000,1.000000 
	C652.354248,1.000000 661.708435,1.000000 671.531372,1.000000 
M629.746704,381.397064 
	C632.439270,378.490326 635.878967,375.988281 637.707092,372.613312 
	C653.538574,343.386078 653.363953,313.510895 640.228760,283.463226 
	C637.401733,276.996246 632.772949,271.611267 626.168823,268.458832 
	C617.843140,264.484589 607.626160,268.564514 601.272095,278.613434 
	C589.790588,296.771362 587.761963,316.914001 589.673462,337.686371 
	C590.857056,350.548676 594.134888,362.858582 601.496033,373.769623 
	C609.000977,384.893829 618.951782,387.807648 629.746704,381.397064 
M566.050049,311.783844 
	C569.451965,293.429260 575.665344,276.800751 594.679077,267.338104 
	C580.235413,266.258026 568.420410,270.636566 559.529541,278.683319 
	C533.457947,302.279694 533.353516,349.761322 559.679626,373.446289 
	C568.448730,381.335602 583.636536,387.184479 594.070251,384.027740 
	C584.690674,379.977142 578.405579,373.183716 573.929871,364.530701 
	C565.444519,348.125824 563.662476,330.709747 566.050049,311.783844 
M649.523193,384.999115 
	C660.068237,384.532135 669.406372,380.802460 677.004639,373.593384 
	C704.076111,347.908691 703.927856,303.807892 676.877930,278.192780 
	C668.073547,269.855347 653.617615,265.374115 644.320923,267.524139 
	C648.521484,271.214722 654.023926,274.683014 657.711731,279.531494 
	C671.814148,298.072296 673.958557,319.453918 670.620544,341.709778 
	C668.899353,353.185577 665.156982,364.110840 657.378906,372.965881 
	C653.444702,377.444794 648.366943,380.919189 643.882874,384.781738 
	C645.172791,384.841034 646.922729,384.921478 649.523193,384.999115 
z"/>
<path fill="#BF0000" opacity="1.000000" stroke="none" 
	d="
M1.000000,302.468658 
	C176.798630,302.000000 352.597260,302.000000 529.236816,302.000000 
	C518.485229,317.961700 518.302979,333.692413 529.273804,349.996277 
	C353.012299,349.996277 177.474792,349.996277 1.468654,349.998138 
	C1.000000,334.312439 1.000000,318.624878 1.000000,302.468658 
z"/>
<path fill="#BF0000" opacity="1.000000" stroke="none" 
	d="
M1236.000000,349.531342 
	C1060.201172,350.000000 884.402405,350.000000 709.750549,350.000000 
	C711.814697,342.035919 714.759155,334.105896 715.740540,325.939972 
	C716.755798,317.491760 712.860291,309.783356 707.772156,302.003876 
	C883.986755,302.003876 1059.524780,302.003876 1235.531372,302.001953 
	C1236.000000,317.687561 1236.000000,333.375122 1236.000000,349.531342 
z"/>
<path fill="#BF0202" opacity="1.000000" stroke="none" 
	d="
M594.468628,651.000000 
	C594.000000,566.732971 594.000000,482.465973 594.000000,397.306427 
	C610.190247,407.369385 626.153442,407.771515 642.851868,397.255890 
	C642.851868,482.094971 642.851868,566.083862 642.925903,650.536377 
	C626.979126,651.000000 610.958191,651.000000 594.468628,651.000000 
z"/>
<path fill="#BF0000" opacity="1.000000" stroke="none" 
	d="
M640.869202,254.084259 
	C625.304321,244.315353 609.904785,244.624252 594.015198,255.589752 
	C594.015198,170.883987 594.015198,86.924072 594.526794,2.451769 
	C608.622437,1.926709 622.206726,1.946033 635.790344,1.861714 
	C637.528564,1.850924 639.263550,1.300456 641.000000,0.999999 
	C641.444458,1.000000 641.888916,1.000000 642.666687,1.000000 
	C642.943054,2.657724 642.836548,4.315440 642.836243,5.973175 
	C642.822266,88.313232 642.817383,170.653290 642.450439,253.462097 
	C641.682678,253.981979 641.275940,254.033112 640.869202,254.084259 
z"/>
<path fill="#CD3A3A" opacity="1.000000" stroke="none" 
	d="
M640.531372,0.999999 
	C639.263550,1.300456 637.528564,1.850924 635.790344,1.861714 
	C622.206726,1.946033 608.622437,1.926709 594.579590,1.988079 
	C594.068726,1.867717 594.016602,1.698651 593.982178,1.264793 
	C609.354248,1.000000 624.708435,1.000000 640.531372,0.999999 
z"/>
<path fill="#FEFEFE" opacity="1.000000" stroke="none" 
	d="
M496.275330,517.501465 
	C448.714020,528.199707 401.479858,538.652954 354.282043,549.267761 
	C352.211426,549.733459 350.183228,551.391479 348.623840,552.975220 
	C327.936432,573.984863 307.332397,595.076721 286.725220,616.165344 
	C285.455688,617.464539 284.333374,618.907715 283.170654,620.251282 
	C277.723999,614.896790 272.684296,610.088501 267.806732,605.121033 
	C250.766693,587.766968 233.832382,570.308533 216.705856,553.040588 
	C214.852478,551.171875 212.160004,549.619629 209.603134,549.040894 
	C163.555099,538.617554 117.467598,528.368530 71.391846,518.067566 
	C70.359406,517.836731 69.365372,517.434204 67.048874,516.696106 
	C89.918983,511.597290 111.418304,506.793671 132.922607,502.012451 
	C158.724396,496.275726 184.543121,490.613770 210.312256,484.734222 
	C212.555984,484.222321 214.855240,482.697205 216.504349,481.026398 
	C237.333725,459.922760 258.050507,438.708008 278.786469,417.512207 
	C279.945496,416.327545 281.020935,415.061127 283.585571,412.233948 
	C284.768951,414.317047 285.387817,416.195038 286.626984,417.470215 
	C307.175751,438.615417 327.755493,459.731293 348.488220,480.695587 
	C350.443024,482.672272 353.312927,484.281281 356.022034,484.894623 
	C402.068970,495.319763 448.158783,505.555664 494.229065,515.877991 
	C495.084747,516.069702 495.818604,516.804993 496.275330,517.501465 
z"/>
<path fill="#FEFEFE" opacity="1.000000" stroke="none" 
	d="
M264.363770,50.362617 
	C270.742981,44.260777 276.874573,38.411289 283.781250,31.822363 
	C284.408539,32.712559 285.204834,34.236843 286.354858,35.416191 
	C306.940399,56.526447 327.516846,77.646324 348.268616,98.592392 
	C350.331482,100.674583 353.353851,102.371452 356.209381,103.018761 
	C402.253815,113.456581 448.343597,123.694481 494.421692,133.984055 
	C495.191925,134.156052 495.944702,134.406326 498.063324,135.001495 
	C495.265564,135.822418 493.711853,136.376877 492.113953,136.732864 
	C446.841370,146.818619 401.554108,156.839081 356.312286,167.060638 
	C353.451355,167.707001 350.405884,169.366730 348.346283,171.446365 
	C327.832886,192.159393 307.498932,213.050308 287.153412,233.929077 
	C285.774323,235.344299 284.710327,237.066605 282.536652,239.902740 
	C280.733795,237.314880 279.878479,235.639481 278.624084,234.353378 
	C258.036469,213.245209 237.446686,192.138367 216.693024,171.194107 
	C214.742538,169.225708 211.839279,167.682343 209.123642,167.068497 
	C162.267776,156.477264 115.371880,146.063110 68.290298,134.756287 
	C71.502243,133.956573 74.698799,133.087921 77.928436,132.367569 
	C121.738152,122.596077 165.562225,112.888298 209.342056,102.984947 
	C212.048126,102.372810 214.899643,100.742897 216.862839,98.769928 
	C232.725021,82.828796 248.390564,66.692024 264.363770,50.362617 
z"/>
<path fill="#FEFEFE" opacity="1.000000" stroke="none" 
	d="
M1138.325684,524.224731 
	C1101.234985,532.518066 1064.543701,540.673401 1027.894165,549.012390 
	C1025.328857,549.596069 1022.590027,551.062866 1020.747437,552.925720 
	C999.886475,574.015564 979.177551,595.255859 958.459839,616.487000 
	C957.307190,617.668274 956.436218,619.124329 954.829590,621.253906 
	C952.156433,618.197632 950.307251,615.871582 948.242554,613.755798 
	C928.455933,593.478760 908.675659,573.194885 888.749451,553.055542 
	C886.897156,551.183411 884.204712,549.623657 881.647400,549.044861 
	C835.579407,538.617737 789.471741,528.366028 743.376160,518.060547 
	C742.348572,517.830811 741.363770,517.409607 739.162354,516.682373 
	C764.882507,510.942047 789.324158,505.472870 813.772644,500.034729 
	C836.663025,494.943207 859.575378,489.948456 882.432129,484.710724 
	C884.672668,484.197296 886.951416,482.634216 888.604675,480.958710 
	C909.439636,459.842743 930.170471,438.624023 950.894165,417.398651 
	C952.047791,416.217102 952.906799,414.747955 955.029968,411.901611 
	C956.721619,414.522919 957.492371,416.287476 958.749084,417.579468 
	C979.200378,438.604584 999.661072,459.621460 1020.292603,480.469025 
	C1022.357117,482.555145 1025.377075,484.266571 1028.233765,484.912506 
	C1074.789917,495.439301 1121.391357,505.765656 1167.980225,516.147583 
	C1168.269775,516.212097 1168.526733,516.422729 1169.992188,517.189453 
	C1158.912109,519.650146 1148.823486,521.890625 1138.325684,524.224731 
z"/>
<path fill="#FEFEFE" opacity="1.000000" stroke="none" 
	d="
M971.380615,221.380280 
	C965.613037,226.919556 960.092957,232.206406 953.361633,238.653320 
	C952.681396,237.540207 951.984253,235.742523 950.746277,234.471527 
	C930.289673,213.468369 909.823181,192.473816 889.169983,171.664764 
	C886.998901,169.477264 883.810059,167.712448 880.803223,167.029953 
	C834.761780,156.579498 788.672058,146.341934 742.594116,136.052505 
	C741.877502,135.892487 741.167114,135.704193 740.392944,134.614319 
	C748.393188,132.788406 756.385132,130.924911 764.395142,129.142975 
	C803.665833,120.406693 842.950928,111.734200 882.191895,102.866714 
	C884.582886,102.326424 887.031555,100.688759 888.789795,98.906876 
	C910.666321,76.736443 932.419800,54.444618 955.808533,30.545290 
	C956.742798,32.307568 957.277344,34.224945 958.495361,35.477829 
	C979.164734,56.738525 999.876709,77.958511 1020.727661,99.040749 
	C1022.571228,100.904770 1025.298828,102.394905 1027.860840,102.973694 
	C1074.075073,113.413559 1120.327148,123.685493 1166.568970,134.002930 
	C1167.321777,134.170898 1168.047852,134.458771 1168.823853,135.578506 
	C1157.967896,138.028305 1147.118652,140.507904 1136.254883,142.922470 
	C1099.903198,151.001862 1063.536255,159.012909 1027.214844,167.225739 
	C1024.822266,167.766739 1022.369934,169.391418 1020.609192,171.169403 
	C1004.199219,187.740112 987.934692,204.454819 971.380615,221.380280 
z"/>
<path fill="#020202" opacity="1.000000" stroke="none" 
	d="
M629.442200,381.610840 
	C618.951782,387.807648 609.000977,384.893829 601.496033,373.769623 
	C594.134888,362.858582 590.857056,350.548676 589.673462,337.686371 
	C587.761963,316.914001 589.790588,296.771362 601.272095,278.613434 
	C607.626160,268.564514 617.843140,264.484589 626.168823,268.458832 
	C632.772949,271.611267 637.401733,276.996246 640.228760,283.463226 
	C653.363953,313.510895 653.538574,343.386078 637.707092,372.613312 
	C635.878967,375.988281 632.439270,378.490326 629.442200,381.610840 
z"/>
<path fill="#030303" opacity="1.000000" stroke="none" 
	d="
M566.000610,312.220856 
	C563.662476,330.709747 565.444519,348.125824 573.929871,364.530701 
	C578.405579,373.183716 584.690674,379.977142 594.070251,384.027740 
	C583.636536,387.184479 568.448730,381.335602 559.679626,373.446289 
	C533.353516,349.761322 533.457947,302.279694 559.529541,278.683319 
	C568.420410,270.636566 580.235413,266.258026 594.679077,267.338104 
	C575.665344,276.800751 569.451965,293.429260 566.000610,312.220856 
z"/>
<path fill="#030303" opacity="1.000000" stroke="none" 
	d="
M649.097900,385.000488 
	C646.922729,384.921478 645.172791,384.841034 643.882874,384.781738 
	C648.366943,380.919189 653.444702,377.444794 657.378906,372.965881 
	C665.156982,364.110840 668.899353,353.185577 670.620544,341.709778 
	C673.958557,319.453918 671.814148,298.072296 657.711731,279.531494 
	C654.023926,274.683014 648.521484,271.214722 644.320923,267.524139 
	C653.617615,265.374115 668.073547,269.855347 676.877930,278.192780 
	C703.927856,303.807892 704.076111,347.908691 677.004639,373.593384 
	C669.406372,380.802460 660.068237,384.532135 649.097900,385.000488 
z"/>
<path fill="#CD3A3A" opacity="1.000000" stroke="none" 
	d="
M641.023804,254.375854 
	C641.275940,254.033112 641.682678,253.981979 642.396729,253.922318 
	C642.195435,254.165024 641.686951,254.416245 641.023804,254.375854 
z"/>
</svg>
