<svg version="1.1" id="Layer_1" xmlns="http://www.w3.org/2000/svg" xmlns:xlink="http://www.w3.org/1999/xlink" x="0px" y="0px"
	 width="100%" viewBox="0 0 1920 1080" enable-background="new 0 0 1920 1080" xml:space="preserve">
<path fill="#FFFFFF" opacity="1.000000" stroke="none" 
	d="
M1.000000,441.000000 
	C1.000000,294.354919 1.000000,147.709854 1.000000,1.032389 
	C640.884216,1.032389 1280.768433,1.032389 1921.000000,1.032389 
	C1921.000000,147.362518 1921.000000,293.725311 1920.531372,440.543823 
	C1535.473145,440.999512 1150.883667,440.999512 766.173889,440.999512 
	C756.798706,419.170746 745.242798,398.750092 730.044434,380.713074 
	C665.332520,303.914551 582.672791,271.681854 483.977600,288.806152 
	C395.998322,304.071136 333.440308,355.581116 295.270325,436.350281 
	C293.587524,439.911133 291.892273,441.104523 287.954559,441.099274 
	C192.303146,440.971680 96.651558,440.999847 1.000000,441.000000 
z"/>
<path fill="#FFFFFF" opacity="1.000000" stroke="none" 
	d="
M1921.000000,641.000000 
	C1921.000000,787.645081 1921.000000,934.290222 1921.000000,1080.967651 
	C1281.115723,1080.967651 641.231323,1080.967651 1.000000,1080.967651 
	C1.000000,934.637451 1.000000,788.274658 1.468657,641.456116 
	C97.422195,641.000427 192.907104,641.019165 288.391907,640.925537 
	C291.843109,640.922180 293.606750,641.811157 295.052551,645.134338 
	C306.441528,671.313049 321.716125,695.105103 341.552307,715.600586 
	C406.743500,782.958313 486.110291,809.949585 578.139282,792.670166 
	C663.036133,776.729919 723.899231,727.190186 762.145081,649.829834 
	C763.596252,646.894470 764.947693,643.909729 766.321106,641.000000 
	C1151.461182,641.000000 1536.230591,641.000000 1921.000000,641.000000 
z"/>
<path fill="#0D0E27" opacity="1.000000" stroke="none" 
	d="
M1921.000000,640.531372 
	C1536.230591,641.000000 1151.461182,641.000000 766.321106,641.000000 
	C764.947693,643.909729 763.596252,646.894470 762.145081,649.829834 
	C723.899231,727.190186 663.036133,776.729919 578.139282,792.670166 
	C486.110291,809.949585 406.743500,782.958313 341.552307,715.600586 
	C321.716125,695.105103 306.441528,671.313049 295.052551,645.134338 
	C293.606750,641.811157 291.843109,640.922180 288.391907,640.925537 
	C192.907104,641.019165 97.422195,641.000427 1.468657,641.000183 
	C1.000000,624.645752 1.000000,608.291565 1.468657,591.468628 
	C93.630730,590.999878 185.324158,590.999878 277.653107,590.999878 
	C271.302063,557.297607 271.443604,524.404541 277.587311,491.000000 
	C184.852585,491.000000 92.926292,491.000000 1.000000,491.000000 
	C1.000000,474.645782 1.000000,458.291534 1.000000,441.468658 
	C96.651558,440.999847 192.303146,440.971680 287.954559,441.099274 
	C291.892273,441.104523 293.587524,439.911133 295.270325,436.350281 
	C333.440308,355.581116 395.998322,304.071136 483.977600,288.806152 
	C582.672791,271.681854 665.332520,303.914551 730.044434,380.713074 
	C745.242798,398.750092 756.798706,419.170746 766.173889,440.999512 
	C1150.883667,440.999512 1535.473145,440.999512 1920.531372,440.999756 
	C1921.000000,457.354218 1921.000000,473.708466 1920.531372,490.531525 
	C1540.748169,491.000366 1161.433594,491.000366 781.667053,491.000366 
	C787.765076,524.705627 787.631226,557.604797 781.716125,591.000000 
	C1161.893555,591.000000 1541.446777,591.000000 1921.000000,591.000000 
	C1921.000000,607.354248 1921.000000,623.708435 1921.000000,640.531372 
M338.072205,448.990173 
	C337.170227,450.366913 335.987213,451.636383 335.413849,453.138550 
	C332.631317,460.428345 330.366150,467.933960 327.268494,475.081726 
	C318.227234,495.944061 315.940155,518.013733 315.036285,540.355652 
	C314.391357,556.297363 318.338379,571.667725 320.865265,587.242676 
	C325.566772,616.221191 336.430328,642.559814 353.723389,666.152100 
	C365.683716,682.469238 380.011444,696.642090 395.783295,709.309265 
	C415.266724,724.957275 436.220703,737.954651 460.380188,745.279419 
	C476.985718,750.314026 493.849426,754.113647 511.170013,754.986511 
	C526.899536,755.779175 542.898743,757.385742 558.387146,755.468201 
	C587.481873,751.866211 616.024658,745.032837 641.590454,729.566711 
	C658.714966,719.207214 675.130798,707.750793 688.475708,692.683899 
	C695.722717,684.501587 702.011108,675.428223 708.319702,666.466614 
	C717.410278,653.553162 723.414368,639.177795 727.693787,623.407654 
	C734.767151,606.966919 739.409424,589.786499 741.840271,572.133484 
	C747.677307,529.744629 742.616394,488.567535 724.096069,449.900879 
	C693.365295,385.740997 643.321228,345.031128 573.408203,329.625427 
	C543.164001,322.960968 512.888184,323.504669 482.866516,330.666534 
	C430.715820,343.107483 388.946075,371.426941 357.868408,415.015472 
	C350.409698,425.476807 345.021179,437.414215 338.072205,448.990173 
z"/>
<path fill="#CC2E39" opacity="1.000000" stroke="none" 
	d="
M1921.000000,590.531372 
	C1541.446777,591.000000 1161.893555,591.000000 781.716125,591.000000 
	C787.631226,557.604797 787.765076,524.705627 781.667053,491.000366 
	C1161.433594,491.000366 1540.748169,491.000366 1920.531372,491.000183 
	C1921.000000,524.020874 1921.000000,557.041809 1921.000000,590.531372 
z"/>
<path fill="#CC2E39" opacity="1.000000" stroke="none" 
	d="
M1.000000,491.468658 
	C92.926292,491.000000 184.852585,491.000000 277.587311,491.000000 
	C271.443604,524.404541 271.302063,557.297607 277.653107,590.999878 
	C185.324158,590.999878 93.630730,590.999878 1.468657,590.999939 
	C1.000000,557.979126 1.000000,524.958191 1.000000,491.468658 
z"/>
<path fill="#00479F" opacity="1.000000" stroke="none" 
	d="
M727.210632,623.869019 
	C723.414368,639.177795 717.410278,653.553162 708.319702,666.466614 
	C702.011108,675.428223 695.722717,684.501587 688.475708,692.683899 
	C675.130798,707.750793 658.714966,719.207214 641.590454,729.566711 
	C616.024658,745.032837 587.481873,751.866211 558.387146,755.468201 
	C542.898743,757.385742 526.899536,755.779175 511.170013,754.986511 
	C493.849426,754.113647 476.985718,750.314026 460.380188,745.279419 
	C436.220703,737.954651 415.266724,724.957275 395.783295,709.309265 
	C380.011444,696.642090 365.683716,682.469238 353.723389,666.152100 
	C336.430328,642.559814 325.566772,616.221191 320.865265,587.242676 
	C318.338379,571.667725 314.391357,556.297363 315.036285,540.355652 
	C315.940155,518.013733 318.227234,495.944061 327.268494,475.081726 
	C330.366150,467.933960 332.631317,460.428345 335.413849,453.138550 
	C335.987213,451.636383 337.170227,450.366913 338.654419,449.239624 
	C339.102692,451.148102 339.025848,452.813965 338.826477,454.465057 
	C334.525299,490.082520 341.296234,523.108215 362.244507,552.647156 
	C387.717926,588.567017 434.266235,601.337524 473.702759,582.914124 
	C498.815704,571.182251 519.881470,553.695862 538.155457,533.158997 
	C564.357056,503.712799 596.392395,489.608612 635.627686,495.388306 
	C680.625732,502.016937 713.287292,536.891907 724.043884,578.284485 
	C727.934814,593.257080 728.820374,608.488892 727.210632,623.869019 
z"/>
<path fill="#CB2E39" opacity="1.000000" stroke="none" 
	d="
M727.452209,623.638306 
	C728.820374,608.488892 727.934814,593.257080 724.043884,578.284485 
	C713.287292,536.891907 680.625732,502.016937 635.627686,495.388306 
	C596.392395,489.608612 564.357056,503.712799 538.155457,533.158997 
	C519.881470,553.695862 498.815704,571.182251 473.702759,582.914124 
	C434.266235,601.337524 387.717926,588.567017 362.244507,552.647156 
	C341.296234,523.108215 334.525299,490.082520 338.826477,454.465057 
	C339.025848,452.813965 339.102692,451.148102 338.958618,449.080933 
	C345.021179,437.414215 350.409698,425.476807 357.868408,415.015472 
	C388.946075,371.426941 430.715820,343.107483 482.866516,330.666534 
	C512.888184,323.504669 543.164001,322.960968 573.408203,329.625427 
	C643.321228,345.031128 693.365295,385.740997 724.096069,449.900879 
	C742.616394,488.567535 747.677307,529.744629 741.840271,572.133484 
	C739.409424,589.786499 734.767151,606.966919 727.452209,623.638306 
z"/>
</svg>
