<svg xmlns="http://www.w3.org/2000/svg" xmlns:xlink="http://www.w3.org/1999/xlink" width="1039" zoomAndPan="magnify" viewBox="0 0 779.25 735.749978" height="981" preserveAspectRatio="xMidYMid meet" version="1.2"><defs><clipPath id="a20bc282f8"><path d="M 315 0.230469 L 671 0.230469 L 671 268 L 315 268 Z M 315 0.230469 "/></clipPath><clipPath id="cd75492d41"><path d="M 440 0.230469 L 768 0.230469 L 768 189 L 440 189 Z M 440 0.230469 "/></clipPath><clipPath id="3ae942faa5"><path d="M 480 0.230469 L 778.5 0.230469 L 778.5 181 L 480 181 Z M 480 0.230469 "/></clipPath><clipPath id="4cbdbdf14c"><path d="M 445 11 L 778.5 11 L 778.5 331 L 445 331 Z M 445 11 "/></clipPath><clipPath id="337ce9cdde"><path d="M 494 0.230469 L 778.5 0.230469 L 778.5 291 L 494 291 Z M 494 0.230469 "/></clipPath><clipPath id="4ce20f8ea5"><path d="M 0 466 L 335 466 L 335 735.269531 L 0 735.269531 Z M 0 466 "/></clipPath><clipPath id="3197074c1e"><path d="M 0 533 L 221 533 L 221 735.269531 L 0 735.269531 Z M 0 533 "/></clipPath><clipPath id="5d6a0d651b"><path d="M 445 40 L 778.5 40 L 778.5 369 L 445 369 Z M 445 40 "/></clipPath><clipPath id="7edd448c08"><path d="M 547 0.230469 L 778.5 0.230469 L 778.5 307 L 547 307 Z M 547 0.230469 "/></clipPath><clipPath id="1ac851998c"><path d="M 552 40 L 778.5 40 L 778.5 369 L 552 369 Z M 552 40 "/></clipPath><clipPath id="4919d8892a"><path d="M 557 108 L 778.5 108 L 778.5 437 L 557 437 Z M 557 108 "/></clipPath></defs><g id="3870e2945f"><path style="fill:none;stroke-width:34;stroke-linecap:round;stroke-linejoin:miter;stroke:#152484;stroke-opacity:1;stroke-miterlimit:4;" d="M 16.997273 17.000979 L 254.814039 17.000245 " transform="matrix(0.619832,-0.420983,0.420983,0.619832,234.573045,241.961548)"/><path style="fill:none;stroke-width:34;stroke-linecap:round;stroke-linejoin:miter;stroke:#152484;stroke-opacity:1;stroke-miterlimit:4;" d="M 17.001236 16.999933 L 418.574882 16.999933 " transform="matrix(0.00000000130774,-0.749279,0.749279,0.00000000130774,237.914654,565.176166)"/><path style="fill:none;stroke-width:34;stroke-linecap:round;stroke-linejoin:miter;stroke:#152484;stroke-opacity:1;stroke-miterlimit:4;" d="M 16.99741 17.000831 L 254.814175 17.000096 " transform="matrix(0.619832,-0.420983,0.420983,0.619832,239.588648,547.258572)"/><path style="fill:none;stroke-width:34;stroke-linecap:round;stroke-linejoin:miter;stroke:#152484;stroke-opacity:1;stroke-miterlimit:4;" d="M 16.997943 17.0024 L 194.271288 17.0024 " transform="matrix(0.00000000130609,-0.748337,0.748337,0.00000000130609,397.467885,455.224092)"/><path style="fill:none;stroke-width:34;stroke-linecap:round;stroke-linejoin:miter;stroke:#152484;stroke-opacity:1;stroke-miterlimit:4;" d="M 16.998411 17.000161 L 157.290854 16.997633 " transform="matrix(0.619974,-0.418618,0.418618,0.619974,299.864396,366.83009)"/><path style="fill:none;stroke-width:34;stroke-linecap:round;stroke-linejoin:miter;stroke:#152484;stroke-opacity:1;stroke-miterlimit:4;" d="M 16.999086 17.002114 L 194.27243 17.002113 " transform="matrix(0.00000000130609,-0.748337,0.748337,0.00000000130609,440.901694,272.580415)"/><g clip-rule="nonzero" clip-path="url(#a20bc282f8)"><path style="fill:none;stroke-width:34;stroke-linecap:round;stroke-linejoin:miter;stroke:#152484;stroke-opacity:1;stroke-miterlimit:4;" d="M 17.002383 17.000464 L 126.419024 16.999435 " transform="matrix(0.617269,-0.420977,0.420977,0.617269,441.230969,120.159843)"/></g><path style="fill:none;stroke-width:34;stroke-linecap:round;stroke-linejoin:miter;stroke:#152484;stroke-opacity:1;stroke-miterlimit:4;" d="M 17.002051 17.000799 L 194.270176 17.000798 " transform="matrix(0.00000000130609,-0.748337,0.748337,0.00000000130609,515.519865,228.438103)"/><path style="fill:none;stroke-width:34;stroke-linecap:round;stroke-linejoin:miter;stroke:#152484;stroke-opacity:1;stroke-miterlimit:4;" d="M 17.000504 16.999733 L 126.417146 16.998704 " transform="matrix(0.617269,-0.420977,0.420977,0.617269,436.201186,258.561847)"/><path style="fill:none;stroke-width:34;stroke-linecap:round;stroke-linejoin:miter;stroke:#152484;stroke-opacity:1;stroke-miterlimit:4;" d="M 17.000857 16.99768 L 194.274201 16.99768 " transform="matrix(0,-0.748337,0.748337,0,566.459699,193.429397)"/><g clip-rule="nonzero" clip-path="url(#cd75492d41)"><path style="fill:none;stroke-width:34;stroke-linecap:round;stroke-linejoin:miter;stroke:#152484;stroke-opacity:1;stroke-miterlimit:4;" d="M 16.998912 16.997075 L 79.042038 16.998429 " transform="matrix(0.620275,-0.419895,0.419895,0.620275,567.123692,40.567559)"/></g><g clip-rule="nonzero" clip-path="url(#3ae942faa5)"><path style="fill:none;stroke-width:34;stroke-linecap:round;stroke-linejoin:miter;stroke:#152484;stroke-opacity:1;stroke-miterlimit:4;" d="M 16.999207 17.003156 L 60.144119 16.998482 " transform="matrix(0.637616,0.390921,-0.390921,0.637616,620.57355,2.774882)"/></g><path style="fill:none;stroke-width:34;stroke-linecap:round;stroke-linejoin:miter;stroke:#152484;stroke-opacity:1;stroke-miterlimit:4;" d="M 17.00259 17.002308 L 101.662122 17.002308 " transform="matrix(0,-0.749279,0.749279,0,641.455843,114.278743)"/><g clip-rule="nonzero" clip-path="url(#4cbdbdf14c)"><path style="fill:none;stroke-width:34;stroke-linecap:round;stroke-linejoin:miter;stroke:#152484;stroke-opacity:1;stroke-miterlimit:4;" d="M 16.999766 17.000846 L 89.244238 17.000072 " transform="matrix(0.616726,-0.422604,0.422604,0.616726,571.99916,182.921962)"/></g><g clip-rule="nonzero" clip-path="url(#337ce9cdde)"><path style="fill:none;stroke-width:34;stroke-linecap:round;stroke-linejoin:miter;stroke:#152484;stroke-opacity:1;stroke-miterlimit:4;" d="M 16.998364 17.001128 L 67.867837 17.002242 " transform="matrix(-0.299158,0.686967,-0.686967,-0.299158,670.920651,105.096201)"/></g><path style="fill:none;stroke-width:34;stroke-linecap:round;stroke-linejoin:miter;stroke:#ffbf00;stroke-opacity:1;stroke-miterlimit:4;" d="M 17.000388 17.000733 L 232.984115 17.000733 " transform="matrix(0,-0.749279,0.749279,0,148.187492,630.675531)"/><path style="fill:none;stroke-width:34;stroke-linecap:round;stroke-linejoin:miter;stroke:#ffbf00;stroke-opacity:1;stroke-miterlimit:4;" d="M 17.000295 16.999374 L 112.296381 17.000702 " transform="matrix(0.618502,-0.42004,0.42004,0.618502,108.680799,471.900089)"/><g clip-rule="nonzero" clip-path="url(#4ce20f8ea5)"><path style="fill:none;stroke-width:34;stroke-linecap:round;stroke-linejoin:miter;stroke:#ffbf00;stroke-opacity:1;stroke-miterlimit:4;" d="M 17.000552 16.999797 L 112.296638 17.001125 " transform="matrix(0.618502,-0.42004,0.42004,0.618502,113.696088,647.349154)"/></g><path style="fill:none;stroke-width:34;stroke-linecap:round;stroke-linejoin:miter;stroke:#ffbf00;stroke-opacity:1;stroke-miterlimit:4;" d="M 17.000157 17.002392 L 194.273501 17.002391 " transform="matrix(0.00000000130609,-0.748337,0.748337,0.00000000130609,3.342892,724.29606)"/><g clip-rule="nonzero" clip-path="url(#3197074c1e)"><path style="fill:none;stroke-width:34;stroke-linecap:round;stroke-linejoin:miter;stroke:#ffbf00;stroke-opacity:1;stroke-miterlimit:4;" d="M 16.997166 16.999636 L 112.293251 17.000964 " transform="matrix(0.618502,-0.42004,0.42004,0.618502,-0.000969305,713.757987)"/></g><path style="fill:none;stroke-width:34;stroke-linecap:round;stroke-linejoin:miter;stroke:#ffbf00;stroke-opacity:1;stroke-miterlimit:4;" d="M 16.997887 17.000528 L 194.271231 17.000528 " transform="matrix(0.00000000130609,-0.748337,0.748337,0.00000000130609,449.828661,443.364674)"/><path style="fill:none;stroke-width:34;stroke-linecap:round;stroke-linejoin:miter;stroke:#ffbf00;stroke-opacity:1;stroke-miterlimit:4;" d="M 16.999972 17.002333 L 112.298993 16.999339 " transform="matrix(0.618502,-0.42004,0.42004,0.618502,451.500069,355.581717)"/><path style="fill:none;stroke-width:34;stroke-linecap:round;stroke-linejoin:miter;stroke:#ffbf00;stroke-opacity:1;stroke-miterlimit:4;" d="M 17.001632 16.997571 L 194.274976 16.997571 " transform="matrix(0,-0.748337,0.748337,0,526.061343,397.113571)"/><path style="fill:none;stroke-width:34;stroke-linecap:round;stroke-linejoin:miter;stroke:#ffbf00;stroke-opacity:1;stroke-miterlimit:4;" d="M 17.002477 16.997429 L 194.270601 16.997429 " transform="matrix(0.00000000130609,-0.748337,0.748337,0.00000000130609,612.190355,351.73139)"/><g clip-rule="nonzero" clip-path="url(#5d6a0d651b)"><path style="fill:none;stroke-width:34;stroke-linecap:round;stroke-linejoin:miter;stroke:#ffbf00;stroke-opacity:1;stroke-miterlimit:4;" d="M 16.999471 16.998524 L 112.295556 16.999852 " transform="matrix(0.618502,-0.42004,0.42004,0.618502,572.123072,220.88855)"/></g><g clip-rule="nonzero" clip-path="url(#7edd448c08)"><path style="fill:none;stroke-width:34;stroke-linecap:round;stroke-linejoin:miter;stroke:#ffbf00;stroke-opacity:1;stroke-miterlimit:4;" d="M 17.00194 17.000915 L 112.293703 16.999307 " transform="matrix(0.618502,-0.42004,0.42004,0.618502,673.370541,159.075608)"/></g><path style="fill:none;stroke-width:34;stroke-linecap:round;stroke-linejoin:miter;stroke:#ffbf00;stroke-opacity:1;stroke-miterlimit:4;" d="M 16.999287 16.998762 L 83.186681 16.998762 " transform="matrix(0,-0.747877,0.747877,0,676.716712,233.377431)"/><path style="fill:none;stroke-width:34;stroke-linecap:round;stroke-linejoin:miter;stroke:#ffbf00;stroke-opacity:1;stroke-miterlimit:4;" d="M 17.002565 17.001377 L 98.229529 17.001377 " transform="matrix(0,-0.747856,0.747856,0,747.929945,263.336568)"/><g clip-rule="nonzero" clip-path="url(#1ac851998c)"><path style="fill:none;stroke-width:34;stroke-linecap:round;stroke-linejoin:miter;stroke:#ffbf00;stroke-opacity:1;stroke-miterlimit:4;" d="M 16.998361 16.99777 L 112.294447 16.999099 " transform="matrix(0.618502,-0.42004,0.42004,0.618502,678.385794,220.88855)"/></g><g clip-rule="nonzero" clip-path="url(#4919d8892a)"><path style="fill:none;stroke-width:34;stroke-linecap:round;stroke-linejoin:miter;stroke:#ffbf00;stroke-opacity:1;stroke-miterlimit:4;" d="M 16.999174 16.997289 L 112.295259 16.998617 " transform="matrix(0.618502,-0.42004,0.42004,0.618502,683.401119,289.256377)"/></g></g></svg>